<svg data-v-decfdd8a="" version="1.0" xmlns="http://www.w3.org/2000/svg" xmlns:xlink="http://www.w3.org/1999/xlink" width="100%" height="100%" viewBox="0 0 101.02224894768489 101.02224894768489" preserveAspectRatio="xMidYMid meet" color-interpolation-filters="sRGB" style="margin: auto;"> <rect data-v-decfdd8a="" x="0" y="0" width="100%" height="100%" fill="#ffffff" fill-opacity="0" class="background"></rect> <!----> <g data-v-decfdd8a="" fill="#1378c0" class="icon-text-wrapper icon-svg-group iconsvg" transform="translate(14.431748253139318, 14.431748253139318)"><g fill="#4a93fa" class="iconsvg-imagesvg icon_container"><rect fill="#1378c0" fill-opacity="0" stroke-width="2" x="0" y="0" width="72.15874924834635" height="72.15874924834635" class="image-rect"></rect> <svg viewBox="0 0 60 60" x="0" y="0" width="72.15874924834635" height="72.15874924834635" class="image-svg-svg bn" style="overflow: visible;"><g hollow-target="iconBnFill" mask="url(#96d3ea99-ae55-4c27-8fed-deb06662c758)"><g><svg xmlns="http://www.w3.org/2000/svg" xmlns:xlink="http://www.w3.org/1999/xlink" version="1.1" x="0" y="0" viewBox="5 5 90 90" enable-background="new 0 0 100 100" xml:space="preserve" style="overflow: visible;" width="60" height="60" filtersec="colorsf498985872" filter="url(#Yp5Cm1W1oQsydMwKaU_Fw)"><g transform="scale(1, 1) skewX(0)"><path d="M75.921,5H24.305C13.752,5,5,13.752,5,24.305v51.616C5,86.472,13.752,95,24.305,95h51.616C86.472,95,95,86.472,95,75.921  V24.305C95,13.752,86.472,5,75.921,5z"></path></g><defs><filter id="Yp5Cm1W1oQsydMwKaU_Fw"><feColorMatrix type="matrix" values="0 0 0 0 0.2890625  0 0 0 0 0.57421875  0 0 0 0 0.9765625  0 0 0 1 0"></feColorMatrix></filter></defs></svg></g> <g filter="url(#colors7950429067)"><svg xmlns="http://www.w3.org/2000/svg" xmlns:xlink="http://www.w3.org/1999/xlink" viewBox="-0.0020003318786621094 0 48.310001373291016 58.099998474121094" width="39.6" height="39.6" x="10.2" y="10.2" class="image-svg-letter"><path transform="translate(4.6080000000000005 51.84)" d="M31.46 6.26Q28.51 6.26 24.80 4.97Q21.10 3.67 15.34 1.22L15.34 1.22L11.88-0.29Q7.99 3.82 3.53 3.82L3.53 3.82Q1.15 3.82-0.72 2.74Q-2.59 1.66-3.60 0.11Q-4.61-1.44-4.61-2.88L-4.61-2.88Q-4.61-4.46-3.20-5.47Q-1.80-6.48 1.30-6.48L1.30-6.48Q4.82-6.48 10.37-5.04L10.37-5.04Q12.02-8.06 13.57-12.24Q15.12-16.42 17.14-22.82L17.14-22.82L18.94-28.37Q15.41-29.52 13.43-31.68Q11.45-33.84 11.45-36.22L11.45-36.22Q11.45-38.52 13.14-40.46Q14.83-42.41 17.50-42.41L17.50-42.41Q16.06-40.54 16.06-37.51L16.06-37.51Q16.06-35.28 17.10-33.59Q18.14-31.90 19.80-30.89L19.80-30.89Q23.04-40.68 26.71-46.26Q30.38-51.84 35.71-51.84L35.71-51.84Q38.74-51.84 41.22-50.00Q43.70-48.17 43.70-44.06L43.70-44.06Q43.70-40.39 41.65-36.54Q39.60-32.69 35.28-30.02Q30.96-27.36 24.55-27.36L24.55-27.36Q21.96-19.51 19.66-13.75Q17.35-7.99 14.69-3.89L14.69-3.89Q21.17-1.94 25.74-0.83Q30.31 0.29 33.77 0.29L33.77 0.29Q35.42 0.29 36.90-0.07Q38.38-0.43 40.10-1.30L40.10-1.30Q38.66 2.66 36.58 4.46Q34.49 6.26 31.46 6.26L31.46 6.26ZM25.34-29.74Q29.23-30.02 32.26-32.80Q35.28-35.57 36.97-39.28Q38.66-42.98 38.66-45.79L38.66-45.79Q38.66-49.03 36.29-49.03L36.29-49.03Q33.41-49.03 30.96-44.17Q28.51-39.31 25.34-29.74L25.34-29.74ZM2.81 1.15Q4.46 1.15 5.58 0.47Q6.70-0.22 8.14-1.73L8.14-1.73Q3.02-3.60 0.58-3.60L0.58-3.60Q-0.72-3.60-1.37-3.13Q-2.02-2.66-2.02-1.87L-2.02-1.87Q-2.02-0.65-0.58 0.25Q0.86 1.15 2.81 1.15L2.81 1.15Z"></path></svg></g></g><mask id="96d3ea99-ae55-4c27-8fed-deb06662c758"><g fill="white"><svg xmlns="http://www.w3.org/2000/svg" xmlns:xlink="http://www.w3.org/1999/xlink" version="1.1" x="0" y="0" viewBox="5 5 90 90" enable-background="new 0 0 100 100" xml:space="preserve" style="overflow: visible;" width="60" height="60" filtersec="colorsf498985872"><g transform="scale(1, 1) skewX(0)"><path d="M75.921,5H24.305C13.752,5,5,13.752,5,24.305v51.616C5,86.472,13.752,95,24.305,95h51.616C86.472,95,95,86.472,95,75.921  V24.305C95,13.752,86.472,5,75.921,5z"></path></g><defs></defs></svg></g> <g fill="black"><svg xmlns="http://www.w3.org/2000/svg" xmlns:xlink="http://www.w3.org/1999/xlink" viewBox="-0.0020003318786621094 0 48.310001373291016 58.099998474121094" width="39.6" height="39.6" x="10.2" y="10.2" class="image-svg-letter"><path transform="translate(4.6080000000000005 51.84)" d="M31.46 6.26Q28.51 6.26 24.80 4.97Q21.10 3.67 15.34 1.22L15.34 1.22L11.88-0.29Q7.99 3.82 3.53 3.82L3.53 3.82Q1.15 3.82-0.72 2.74Q-2.59 1.66-3.60 0.11Q-4.61-1.44-4.61-2.88L-4.61-2.88Q-4.61-4.46-3.20-5.47Q-1.80-6.48 1.30-6.48L1.30-6.48Q4.82-6.48 10.37-5.04L10.37-5.04Q12.02-8.06 13.57-12.24Q15.12-16.42 17.14-22.82L17.14-22.82L18.94-28.37Q15.41-29.52 13.43-31.68Q11.45-33.84 11.45-36.22L11.45-36.22Q11.45-38.52 13.14-40.46Q14.83-42.41 17.50-42.41L17.50-42.41Q16.06-40.54 16.06-37.51L16.06-37.51Q16.06-35.28 17.10-33.59Q18.14-31.90 19.80-30.89L19.80-30.89Q23.04-40.68 26.71-46.26Q30.38-51.84 35.71-51.84L35.71-51.84Q38.74-51.84 41.22-50.00Q43.70-48.17 43.70-44.06L43.70-44.06Q43.70-40.39 41.65-36.54Q39.60-32.69 35.28-30.02Q30.96-27.36 24.55-27.36L24.55-27.36Q21.96-19.51 19.66-13.75Q17.35-7.99 14.69-3.89L14.69-3.89Q21.17-1.94 25.74-0.83Q30.31 0.29 33.77 0.29L33.77 0.29Q35.42 0.29 36.90-0.07Q38.38-0.43 40.10-1.30L40.10-1.30Q38.66 2.66 36.58 4.46Q34.49 6.26 31.46 6.26L31.46 6.26ZM25.34-29.74Q29.23-30.02 32.26-32.80Q35.28-35.57 36.97-39.28Q38.66-42.98 38.66-45.79L38.66-45.79Q38.66-49.03 36.29-49.03L36.29-49.03Q33.41-49.03 30.96-44.17Q28.51-39.31 25.34-29.74L25.34-29.74ZM2.81 1.15Q4.46 1.15 5.58 0.47Q6.70-0.22 8.14-1.73L8.14-1.73Q3.02-3.60 0.58-3.60L0.58-3.60Q-0.72-3.60-1.37-3.13Q-2.02-2.66-2.02-1.87L-2.02-1.87Q-2.02-0.65-0.58 0.25Q0.86 1.15 2.81 1.15L2.81 1.15Z"></path></svg></g></mask></svg> <defs><filter id="colors7950429067"><feColorMatrix type="matrix" values="0 0 0 0 0.07421875  0 0 0 0 0.46875  0 0 0 0 0.75  0 0 0 1 0" class="icon-fecolormatrix"></feColorMatrix></filter> <filter id="colorsf498985872"><feColorMatrix type="matrix" values="0 0 0 0 0.99609375  0 0 0 0 0.99609375  0 0 0 0 0.99609375  0 0 0 1 0" class="icon-fecolormatrix"></feColorMatrix></filter> <filter id="colorsb3187049137"><feColorMatrix type="matrix" values="0 0 0 0 0  0 0 0 0 0  0 0 0 0 0  0 0 0 1 0" class="icon-fecolormatrix"></feColorMatrix></filter></defs></g> <g transform="translate(36.079376220703125,79.15875244140625)"><g data-gra="path-name" fill-rule="" class="tp-name iconsvg-namesvg"><g transform="scale(0.7599999999999998)"><g><path d="" transform="translate(0, 0)"></path></g> <!----> <!----> <!----> <!----> <!----> <!----> <!----></g></g> <!----></g></g><defs v-gra="od"></defs></svg>