<svg xmlns="http://www.w3.org/2000/svg" xmlns:xlink="http://www.w3.org/1999/xlink" width="24" height="24" viewBox="0 0 24 24" fill="none"><defs><rect id="path_0" x="0" y="0" width="24" height="24" /></defs><g opacity="1" transform="translate(0 0)  rotate(0 12 12)"><mask id="bg-mask-0" fill="white"><use xlink:href="#path_0"></use></mask><g mask="url(#bg-mask-0)" ><path id="路径 1" fill-rule="evenodd" style="fill:#A6A6A6" transform="translate(7.5 7.500003730952395)  rotate(0 4.5 4.500548134523802)" opacity="1" d="M1.8,8.1L1.8,4.27L3.67,7.65C3.82,7.95 4.15,8.12 4.5,8.1C4.85,8.12 5.18,7.95 5.33,7.65L7.2,4.27L7.2,8.1C7.2,8.6 7.6,9 8.1,9C8.6,9 9,8.6 9,8.1L9,0.9C9,0.41 8.6,0 8.1,0C8.1,0 8.09,0 8.09,0C7.75,-0.02 7.42,0.15 7.27,0.46L4.5,5.45L1.73,0.45C1.58,0.15 1.25,-0.02 0.91,0C0.91,0 0.9,0 0.9,0C0.43,0 0,0.4 0,0.9L0,8.1C0,8.6 0.4,9 0.9,9C1.4,9 1.8,8.6 1.8,8.1Z " /><path id="分组 1" fill-rule="evenodd" style="fill:#A6A6A6" transform="translate(4 4)  rotate(0 8 8)" opacity="1" d="M0 2L0 14C0 15.11 0.89 16 2 16L14 16C15.11 16 16 15.11 16 14L16 2C16 0.89 15.11 0 14 0L2 0C0.89 0 0 0.89 0 2Z M14.75 13.79L14.75 2.31C14.75 1.78 14.32 1.35 13.79 1.35L2.31 1.35C1.78 1.35 1.35 1.78 1.35 2.31L1.35 13.79C1.35 14.32 1.78 14.75 2.31 14.75L13.79 14.75C14.32 14.75 14.75 14.32 14.75 13.79Z " /></g></g></svg>