<svg data-v-6805eed4="" version="1.0" xmlns="http://www.w3.org/2000/svg" xmlns:xlink="http://www.w3.org/1999/xlink" width="100%" height="100%" viewBox="0 0 340.000000 250.000000" preserveAspectRatio="xMidYMid meet" color-interpolation-filters="sRGB" style="margin: auto;"> <rect data-v-6805eed4="" x="0" y="0" width="100%" height="100%" fill="#ffffff" fill-opacity="1" class="background"></rect> <!----> <g data-v-6805eed4="" class="iconmbgsvg" transform="translate(101.25,56.308387756347656)"><g fill="#fed465" hollow-target="textFill" mask="url(#53e4d7c9-a73f-44b1-a276-2add8cb54a3f)"><g mask="url(#f0f33e57-9c60-448b-932e-29e05415ca6c)"><g><rect fill="#fed465" fill-opacity="0" stroke-width="2" x="0" y="0" width="137.5" height="137.38322425937952" class="image-rect"></rect> <svg filter="url(#colors8603000842)" x="0" y="0" width="137.5" height="137.38322425937952" filtersec="colorsf450181843" class="image-svg-svg primary" style="overflow: visible;"><svg xmlns="http://www.w3.org/2000/svg" viewBox="0.0014691948890686035 -0.00414702296257019 416.7874450683594 416.43255615234375"><g><path d="M415.65 162.72c-1.21-20.68-3.53-41.15-9.32-61.09-13.62-46.83-44.09-76.88-90.72-90.72-29.06-8.63-59-9.79-89-10.65-19.47-.56-39-.2-58.44.8C145.49 2.23 123 4.5 101.11 11 57.7 23.81 27.75 51 12.84 94.11c-9 26-11.62 53-12.31 80.17-.67 26.79-.92 53.62.58 80.43 1.16 20.7 3.6 41.12 9.35 61.08 10.93 38 33.73 66.06 69.8 82.8 16 7.43 33 11.3 50.41 13.89 25.8 3.84 51.76 4 80.91 3.94 12.32-.36 27.79.05 43.29-.9 20.68-1.28 41.14-3.58 61.07-9.4 43.93-12.84 73.71-40.65 88.46-84.19 8.65-25.53 11.24-52.07 11.87-78.74s.95-53.66-.62-80.47z"></path></g></svg></svg> <defs><filter id="colors8603000842"><feColorMatrix type="matrix" values="0 0 0 0 0.5  0 0 0 0 0.37109375  0 0 0 0 0.94921875  0 0 0 1 0" class="icon-fecolormatrix"></feColorMatrix></filter> <filter id="colorsf450181843"><feColorMatrix type="matrix" values="0 0 0 0 0.99609375  0 0 0 0 0.99609375  0 0 0 0 0.99609375  0 0 0 1 0" class="icon-fecolormatrix"></feColorMatrix></filter> <filter id="colorsb8912024738"><feColorMatrix type="matrix" values="0 0 0 0 0  0 0 0 0 0  0 0 0 0 0  0 0 0 1 0" class="icon-fecolormatrix"></feColorMatrix></filter></defs></g><rect v-gra="id" width="149.5" height="149.3832244873047" transform="translate(-6, -6)" style="pointer-events:none;" fill="url(#tZuLHHa9mfripg7wp7SM9)"></rect></g> <g transform="translate(13.254997253417969,37.01161193847656)"><g data-gra="path-name" fill-rule="" class="tp-name" fill="url(#f6ac3077-e71a-451c-ac5a-1d5ea271f472)"><g transform="scale(1)"><g><path d="M5.34-25.99L5.34-59.36 17.89-59.36 17.89-25.99Q18.16-19.67 18.42-17.62L18.42-17.62Q19.05-13.53 22.34-12.06 25.63-10.59 33.91-10.59L33.91-10.59 46.01-10.59 46.01 0 32.57 0Q23.05 0 18.78-1.07L18.78-1.07Q8.99-3.92 6.32-13.53L6.32-13.53Q5.34-17.27 5.34-25.99L5.34-25.99ZM53.13-59.36L71.56-59.36 86.33-12.99 101.91-59.36 120.33-59.36 120.33 0 108.31 0 108.31-44.5 92.83 0 79.83 0 65.15-44.5 65.15 0 53.13 0 53.13-59.36Z" transform="translate(-5.340000152587891, 59.36000061035156)"></path></g> <!----> <!----> <!----> <!----> <!----> <!----> <!----></g></g> <!----></g></g></g><mask id="53e4d7c9-a73f-44b1-a276-2add8cb54a3f"><g fill="white"><g><rect fill-opacity="0" stroke-width="2" x="0" y="0" width="137.5" height="137.38322425937952" class="image-rect"></rect> <svg x="0" y="0" width="137.5" height="137.38322425937952" class="image-svg-svg primary" style="overflow: visible;" filter="url(#colorsf450181843)"><svg xmlns="http://www.w3.org/2000/svg" viewBox="0.0014691948890686035 -0.00414702296257019 416.7874450683594 416.43255615234375"><g><path d="M415.65 162.72c-1.21-20.68-3.53-41.15-9.32-61.09-13.62-46.83-44.09-76.88-90.72-90.72-29.06-8.63-59-9.79-89-10.65-19.47-.56-39-.2-58.44.8C145.49 2.23 123 4.5 101.11 11 57.7 23.81 27.75 51 12.84 94.11c-9 26-11.62 53-12.31 80.17-.67 26.79-.92 53.62.58 80.43 1.16 20.7 3.6 41.12 9.35 61.08 10.93 38 33.73 66.06 69.8 82.8 16 7.43 33 11.3 50.41 13.89 25.8 3.84 51.76 4 80.91 3.94 12.32-.36 27.79.05 43.29-.9 20.68-1.28 41.14-3.58 61.07-9.4 43.93-12.84 73.71-40.65 88.46-84.19 8.65-25.53 11.24-52.07 11.87-78.74s.95-53.66-.62-80.47z"></path></g></svg></svg> <defs>  </defs></g></g> <g transform="translate(13.254997253417969,37.01161193847656)" fill="black"><g data-gra="path-name" fill-rule="" class="tp-name"><g transform="scale(1)"><g><path d="M5.34-25.99L5.34-59.36 17.89-59.36 17.89-25.99Q18.16-19.67 18.42-17.62L18.42-17.62Q19.05-13.53 22.34-12.06 25.63-10.59 33.91-10.59L33.91-10.59 46.01-10.59 46.01 0 32.57 0Q23.05 0 18.78-1.07L18.78-1.07Q8.99-3.92 6.32-13.53L6.32-13.53Q5.34-17.27 5.34-25.99L5.34-25.99ZM53.13-59.36L71.56-59.36 86.33-12.99 101.91-59.36 120.33-59.36 120.33 0 108.31 0 108.31-44.5 92.83 0 79.83 0 65.15-44.5 65.15 0 53.13 0 53.13-59.36Z" transform="translate(-5.340000152587891, 59.36000061035156)"></path></g>       </g></g> </g></mask><defs v-gra="od"><linearGradient x1="0" y1="1" x2="0" y2="0" id="f6ac3077-e71a-451c-ac5a-1d5ea271f472"><stop offset="0%" stop-color="#ff5857"></stop><stop offset="100%" stop-color="#f09819"></stop></linearGradient><filter id="42443b3f1de60f6b6fd3b6a9844b4764" filterUnits="objectBoundingBox"><feColorMatrix type="matrix" values="0 0 0 0 0.99609375  0 0 0 0 0.99609375  0 0 0 0 0.99609375  0 0 0 1 0"></feColorMatrix></filter></defs><defs v-gra="id"><filter id="14ce1b61-0d17-45e1-b15e-daafad20ea17" filterUnits="userSpaceOnUse"><feColorMatrix type="matrix" values="0 0 0 0 0.99609375  0 0 0 0 0.99609375  0 0 0 0 0.99609375  0 0 0 1 0"></feColorMatrix></filter><linearGradient x1="0" y1="1" x2="0" y2="0" id="tZuLHHa9mfripg7wp7SM9"><stop offset="0%" stop-color="#ff5857"></stop><stop offset="100%" stop-color="#f09819"></stop></linearGradient><filter id="42443b3f1de60f6b6fd3b6a9844b4764" filterUnits="objectBoundingBox"><feColorMatrix type="matrix" values="0 0 0 0 0.99609375  0 0 0 0 0.99609375  0 0 0 0 0.99609375  0 0 0 1 0"></feColorMatrix></filter></defs><mask v-gra="im" id="f0f33e57-9c60-448b-932e-29e05415ca6c"><g filter="url(#14ce1b61-0d17-45e1-b15e-daafad20ea17)"><g><rect fill="#fed465" fill-opacity="0" stroke-width="2" x="0" y="0" width="137.5" height="137.38322425937952" class="image-rect"></rect> <svg x="0" y="0" width="137.5" height="137.38322425937952" filtersec="colorsf450181843" class="image-svg-svg primary" style="overflow: visible;"><svg xmlns="http://www.w3.org/2000/svg" viewBox="0.0014691948890686035 -0.00414702296257019 416.7874450683594 416.43255615234375"><g><path d="M415.65 162.72c-1.21-20.68-3.53-41.15-9.32-61.09-13.62-46.83-44.09-76.88-90.72-90.72-29.06-8.63-59-9.79-89-10.65-19.47-.56-39-.2-58.44.8C145.49 2.23 123 4.5 101.11 11 57.7 23.81 27.75 51 12.84 94.11c-9 26-11.62 53-12.31 80.17-.67 26.79-.92 53.62.58 80.43 1.16 20.7 3.6 41.12 9.35 61.08 10.93 38 33.73 66.06 69.8 82.8 16 7.43 33 11.3 50.41 13.89 25.8 3.84 51.76 4 80.91 3.94 12.32-.36 27.79.05 43.29-.9 20.68-1.28 41.14-3.58 61.07-9.4 43.93-12.84 73.71-40.65 88.46-84.19 8.65-25.53 11.24-52.07 11.87-78.74s.95-53.66-.62-80.47z"></path></g></svg></svg> <defs><filter id="colors8603000842"><feColorMatrix type="matrix" values="0 0 0 0 0.5  0 0 0 0 0.37109375  0 0 0 0 0.94921875  0 0 0 1 0" class="icon-fecolormatrix"></feColorMatrix></filter> <filter id="colorsf450181843"><feColorMatrix type="matrix" values="0 0 0 0 0.99609375  0 0 0 0 0.99609375  0 0 0 0 0.99609375  0 0 0 1 0" class="icon-fecolormatrix"></feColorMatrix></filter> <filter id="colorsb8912024738"><feColorMatrix type="matrix" values="0 0 0 0 0  0 0 0 0 0  0 0 0 0 0  0 0 0 1 0" class="icon-fecolormatrix"></feColorMatrix></filter></defs></g></g></mask></svg>